<?xml version="1.0" encoding="UTF-8"?>
<svg id="Capa_1" data-name="Capa 1" xmlns="http://www.w3.org/2000/svg" viewBox="0 0 128 128">
  <path d="M124.58,90.19c-1.99-1.65-4.05-1.35-5.05-.2-.45.39-.75.71-1.03,1.01-.19.2-.37.4-.6.62l-23.89-8.77-.67-.26c.63-.69,1.2-1.22,1.2-1.22l6.12-4.84c.31-.2.68-.27,1.05-.19l8.16,1.73.18.03c1.95.23,3.32-.08,4.13-.26l.25-.05c.19-.04.38-.11.55-.2l8.28-4.57c.08-.05.2-.13.32-.23,1.12-.89,1.87-2.71,1.18-4.21-.22-.48-.69-1.14-1.69-1.6-.77-.36-1.62-.44-2.35-.23l-3.01,1.13c-.18.07-.38.1-.57.09-.59-.03-1.21-.12-2.07-.31-.41-.09-.75-.35-.93-.73l-2.9-5.84c-.26-.52-.73-.88-1.29-1l-41.99-10.07c-.89-.19-1.8.26-2.31,1.14-.53.91-.48,1.95.14,2.64.02.02.04.05.06.06.45.49,3.09,2.23,7.36,5.05,4.31,2.84,9.62,6.33,10.92,7.55-.24.24-.69.67-1.18,1.13-.93.86-2.28,1.11-3.45.65-.63-.25-20.83-9.88-21.43-10.21-.48-.26-6.27-2.56-10.57-2.12-2.26.17-3.43.51-4.38.78-1.02.29-1.82.52-3.55.42-4.59-.29-15.59-6.28-14.99-19.48.49-10.82,8.37-18.74,12.61-22.99,1.22-1.22,2.1-2.1,2.42-2.69.23-.41.21-.86-.06-1.2-.32-.4-.9-.57-1.46-.41-12.07,3.4-25.03,9.14-29.64,25.88-4.05,14.71,5.67,23.17,5.78,23.26,6.37,4.89,11.51,6.12,14.69,6.3,3.16.17,8.89-.14,11.02-.44-.34.52-.92,1.4-1.41,2.14-1.06,1.6-1.41,2.13-1.53,2.34-1.55,1.01-7.79,3.87-17.12,4.48-7.05.46-9.91-.86-11.44-1.57-.57-.26-1.22-.27-1.79-.01-.56.25-.98.72-1.16,1.29-.51,1.62-1.02,2.83-1.47,3.9-.36.86-.71,1.67-.98,2.55-.5.88-.9,2.73-.22,4.18.49,1.04,1.46,1.71,2.8,1.94,2.48.42,4.03-.23,4.62-1.92l.31-.91c.31-.89.5-1.46.81-2.18,4.37,1.08,8.04,1.02,16.14-.21,3.61-.65,8.32-1.71,10.94-3.14-.14.51-.35,1.25-.51,1.84l-20.42,9.87c-2.16,1.3-2.79,2.78-2.03,4.83l2.69,6.42c.03.08.07.16.11.23.76,1.31,2.33,1.81,4.01,1.26,1.57-.51,3.06-1.97,2.85-4.08-.04-.36-.34-1.12-.78-2.15-.4-.95.65-1.55.98-1.71.82-.4,13.8-6.31,17.05-7.44,3.15-1.09,9.8-4.8,10.8-5.36l.23.1c1.16.53,5.69,1.95,9.64,3.34,1.91.67,9.53,2.86,10.45,3.02.04.12.11.3.19.53.7,1.88,2.06,5.15,3.3,6.03.08.06.14.11.19.16,4.21,4.68,18.88,21.52,19.12,21.81.3.58,1.07.79,1.44.83.06,0,.11,0,.16,0,.2,0,.35-.06.51-.12l5.82-2.05c1.9-.69,2.58-1.56,3.03-2.41.75-1.93-.19-4.06-2.13-4.84-.74-.3-1.55-.29-2.28.02-.66.28-1.89.73-1.89.73-.63.19-1.02.14-1.53-.67l-9.01-12.14-.04-.04c-.32-.28-.47-.69-.4-1.1l.74-4.65c.73.25,1.81.63,3.12,1.1l25.2,9.86c.63.24,1.34.01,1.72-.54l1.85-2.73h0s1.8-2.57,1.8-2.57c.54-.91,2.18-3.7.16-5.37Z"/>
</svg>