<?xml version="1.0" encoding="UTF-8"?>
<svg fill="currentColor" id="Capa_1" data-name="Capa 1" xmlns="http://www.w3.org/2000/svg" viewBox="0 0 310.91 310.91">
  <path d="M276.81,212.37c-4.33-3.6-8.8-2.94-10.98-.43-.99.86-1.62,1.53-2.24,2.19-.42.44-.81.87-1.31,1.34l-51.9-19.06-1.46-.57c1.38-1.5,2.61-2.65,2.61-2.65l13.31-10.53c.68-.43,1.48-.58,2.27-.41l17.73,3.75.39.06c4.23.49,7.21-.16,8.98-.55l.55-.12c.42-.09.82-.23,1.19-.44l17.98-9.93c.18-.11.43-.27.7-.49,2.44-1.94,4.07-5.89,2.57-9.15-.48-1.04-1.5-2.48-3.66-3.48-1.68-.77-3.53-.96-5.11-.51l-6.54,2.46c-.4.15-.82.22-1.24.19-1.28-.07-2.63-.27-4.5-.68-.89-.19-1.63-.77-2.03-1.58l-6.31-12.69c-.56-1.12-1.59-1.91-2.81-2.18l-91.23-21.87c-1.93-.41-3.91.56-5.03,2.48-1.15,1.98-1.03,4.24.31,5.75.04.05.09.1.13.14.97,1.06,6.71,4.85,16,10.96,9.37,6.16,20.91,13.76,23.73,16.39-.52.51-1.5,1.46-2.57,2.45-2.02,1.87-4.96,2.42-7.49,1.41-1.38-.55-45.26-21.48-46.56-22.18-1.05-.57-13.62-5.57-22.96-4.61-4.9.38-7.46,1.11-9.52,1.7-2.21.63-3.96,1.13-7.71.9-9.98-.62-33.88-13.64-32.58-42.33,1.06-23.52,18.19-40.72,27.4-49.96,2.64-2.65,4.55-4.57,5.27-5.84.5-.89.45-1.86-.13-2.61-.69-.88-1.96-1.24-3.17-.9-26.23,7.39-54.39,19.86-64.4,56.22-8.79,31.95,12.31,50.35,12.55,50.55,13.84,10.63,25,13.31,31.93,13.68,6.86.37,19.33-.3,23.94-.95-.73,1.14-1.99,3.03-3.07,4.66-2.3,3.47-3.07,4.63-3.32,5.08-3.36,2.19-16.92,8.42-37.2,9.73-15.31.99-21.53-1.88-24.87-3.42-1.23-.57-2.65-.58-3.89-.03-1.21.54-2.13,1.56-2.52,2.81-1.1,3.53-2.21,6.15-3.19,8.46-.79,1.87-1.54,3.64-2.13,5.54-1.09,1.9-1.95,5.94-.48,9.09,1.06,2.27,3.16,3.72,6.09,4.22,5.38.9,8.75-.5,10.03-4.16l.68-1.98c.66-1.94,1.09-3.17,1.76-4.74,9.48,2.34,17.48,2.22,35.07-.47,7.85-1.42,18.08-3.72,23.76-6.81-.3,1.11-.75,2.71-1.11,3.99l-44.38,21.44c-4.69,2.81-6.05,6.05-4.42,10.5l5.85,13.94c.07.17.15.34.24.49,1.65,2.85,5.07,3.93,8.7,2.75,3.42-1.11,6.66-4.28,6.19-8.87-.08-.78-.73-2.44-1.69-4.68-.88-2.06,1.42-3.36,2.14-3.71,1.79-.87,29.98-13.71,37.05-16.16,6.85-2.37,21.3-10.44,23.46-11.65l.49.22c2.52,1.15,12.36,4.24,20.96,7.25,4.15,1.45,20.71,6.21,22.72,6.56.09.26.23.66.42,1.16,1.52,4.07,4.47,11.19,7.17,13.09.17.12.31.23.42.35,9.14,10.16,41.02,46.76,41.55,47.39.66,1.26,2.33,1.72,3.12,1.79.12.01.24.02.34.01.44-.01.76-.13,1.11-.26l12.64-4.45c4.14-1.5,5.6-3.38,6.58-5.24,1.63-4.2-.41-8.82-4.63-10.52-1.61-.65-3.37-.64-4.94.03-1.44.61-4.11,1.58-4.11,1.58-1.38.42-2.22.31-3.33-1.46l-19.59-26.37-.08-.09c-.69-.61-1.02-1.51-.88-2.4l1.62-10.1c1.58.55,3.92,1.37,6.79,2.38l54.76,21.41c1.37.52,2.92.03,3.74-1.18l4.03-5.93h0s3.92-5.58,3.92-5.58c1.17-1.99,4.73-8.03.34-11.67Z"/>
  <g>
    <path d="M285.42,147.86h-3.12s0-.83,0-.83c2.5,0,4.62,0,7.12,0v.83s-3.12,0-3.12,0v8s-.88,0-.88,0v-8Z"/>
    <path d="M298.59,148.33l-3.29,4.85h-.25s-3.31-4.91-3.31-4.91v7.6s-.88,0-.88,0v-8.84h1.09s3.23,4.87,3.23,4.87l3.19-4.87h1.11s0,8.84,0,8.84h-.88s0-7.54,0-7.54Z"/>
  </g>
</svg>